<svg width="78" height="78" viewBox="0 0 78 78" fill="none" xmlns="http://www.w3.org/2000/svg">
<path d="M36.3799 15.1873C34.6193 15.2037 23.2991 15.2542 22.0668 15.3549C20.5617 15.4779 19.4959 15.685 18.6505 15.9871L17.8697 16.3223C16.156 17.1955 14.7221 18.523 13.7222 20.1537L15.516 25.0668C15.0249 26.0307 17.4423 25.9891 17.2783 27.9964C17.1119 30.0338 13.7222 29.7102 13.7222 33.3924L12.1873 43.7824C12.1873 47.4644 12.1884 50.0703 12.3549 52.1077C12.5189 54.1154 12.8312 55.3412 13.3223 56.3049L13.7222 57.0209C14.7221 58.6515 16.156 59.9791 17.8697 60.8523L18.6505 61.1877C19.4959 61.4895 9.53332 58.5353 11.0383 58.6585C12.2697 58.7591 11.9633 15.1709 13.7222 15.1873H36.3799ZM70.6872 43.7824C70.6872 47.3789 70.6883 50.233 70.5007 52.5304C70.3342 54.567 70.0109 56.3407 69.3124 57.9694L68.9887 58.6585C67.6803 61.2267 65.6889 63.376 63.2452 64.8743L62.1711 65.4761C60.3549 66.4012 58.3706 66.7978 56.0434 66.9881C53.7456 67.1757 50.8919 67.1746 47.295 67.1746H30.3924C26.7954 67.1746 23.9417 67.1757 21.644 66.9881C19.6072 66.8216 17.8341 66.4948 16.2054 65.7959L15.516 65.4761C12.9482 64.1677 10.7987 62.1759 9.30038 59.7326L8.69864 58.6585C7.77345 56.8423 7.37682 54.858 7.18662 52.5304C6.99891 50.233 7 47.3789 7 43.7824V33.3924C7 29.7955 6.99891 26.9417 7.18662 24.6441C7.37678 22.3167 7.77349 20.3325 8.69864 18.5161L9.30038 17.442C10.7987 14.9986 12.9481 13.0071 15.516 11.6987L16.2054 11.3749C17.8338 10.6765 19.6077 10.353 21.644 10.1866C23.9417 9.99892 26.7954 10 30.3924 10H47.295C50.8919 10 53.7456 9.99892 56.0434 10.1866C58.3706 10.3768 60.3549 10.7735 62.1711 11.6987L63.2452 12.3004C65.6885 13.7987 67.6803 15.9481 68.9887 18.5161L69.3124 19.2054C70.0109 20.8338 70.3342 22.6077 70.5007 24.6441C70.6883 26.9417 70.6872 29.7955 70.6872 33.3924V43.7824ZM39.4892 61.9872H47.295C50.9773 61.9872 53.5833 61.986 55.6207 61.8199C57.6276 61.6557 58.8538 61.3433 59.8175 60.8523L60.5335 60.4525C62.1645 59.4526 63.4917 58.0185 64.3649 56.3049L64.7003 55.5241C65.0025 54.6786 65.2096 53.6131 65.3325 52.1077C65.499 50.0703 65.5001 47.4644 65.5001 43.7824V33.3924C65.5001 29.7102 65.499 27.1042 65.3325 25.0668C65.2096 23.5617 65.0021 22.4959 64.7003 21.6505L64.3649 20.8697C63.4917 19.156 62.1641 17.7221 60.5335 16.7222L59.8175 16.3223C58.8538 15.8312 57.628 15.5189 55.6207 15.3549C53.5833 15.1885 50.9773 15.1873 47.295 15.1873H31.6835H39.4892V61.9872Z" fill="black"/>
</svg>
